<svg width="24" height="24" viewBox="0 0 24 24" fill="none" xmlns="http://www.w3.org/2000/svg">
<path opacity="0.2" d="M20.3167 9.34971L18.8542 18.1238C18.8249 18.2988 18.7346 18.4578 18.5991 18.5724C18.4637 18.6871 18.292 18.75 18.1145 18.75H5.88578C5.70833 18.75 5.53663 18.6871 5.40119 18.5724C5.26576 18.4578 5.17537 18.2988 5.14609 18.1238L3.68359 9.34971H3.69109C4.0081 9.29666 4.30592 9.16228 4.55547 8.95971L8.25016 13.5L11.2502 6.59534C11.4857 6.69752 11.7397 6.75024 11.9964 6.75024C12.2531 6.75024 12.5071 6.69752 12.7427 6.59534L15.7502 13.5L19.443 8.95502C19.6925 9.1576 19.9903 9.29197 20.3073 9.34502L20.3167 9.34971Z" fill="#9CA3AF"/>
<path d="M23.2497 7.50002C23.2501 7.08889 23.1539 6.68342 22.9688 6.31628C22.7838 5.94914 22.5151 5.6306 22.1844 5.38632C21.8537 5.14204 21.4702 4.97885 21.0649 4.90991C20.6596 4.84096 20.2438 4.86818 19.8509 4.98937C19.458 5.11057 19.0991 5.32235 18.8031 5.60765C18.5071 5.89296 18.2822 6.24381 18.1466 6.63194C18.011 7.02006 17.9685 7.43462 18.0224 7.8422C18.0764 8.24977 18.2253 8.63898 18.4572 8.97846L15.9456 12.0722L13.6872 6.88128C14.0991 6.5346 14.3945 6.06967 14.5332 5.54949C14.672 5.02931 14.6474 4.47905 14.4629 3.97328C14.2784 3.46752 13.9429 3.03072 13.5017 2.72209C13.0606 2.41346 12.5353 2.24792 11.9969 2.24792C11.4585 2.24792 10.9332 2.41346 10.4921 2.72209C10.0509 3.03072 9.71538 3.46752 9.53087 3.97328C9.34636 4.47905 9.32183 5.02931 9.46058 5.54949C9.59934 6.06967 9.89469 6.5346 10.3066 6.88128L8.05377 12.0694L5.54221 8.97565C5.86484 8.50291 6.02413 7.93768 5.99581 7.36604C5.96749 6.7944 5.75313 6.24768 5.38535 5.80915C5.01758 5.37061 4.51655 5.06429 3.95859 4.93683C3.40062 4.80938 2.81628 4.86778 2.29458 5.10313C1.77287 5.33849 1.34238 5.73791 1.06866 6.24056C0.794953 6.7432 0.693022 7.32154 0.778394 7.88747C0.863767 8.45341 1.13176 8.97594 1.54157 9.37547C1.95138 9.77501 2.48054 10.0297 3.04846 10.1006L4.40596 18.2466C4.46432 18.5968 4.64501 18.915 4.9159 19.1445C5.18678 19.374 5.53029 19.5 5.88533 19.5H18.1141C18.4691 19.5 18.8126 19.374 19.0835 19.1445C19.3544 18.915 19.5351 18.5968 19.5935 18.2466L20.95 10.1044C21.5849 10.0251 22.1689 9.7167 22.5924 9.23712C23.0159 8.75754 23.2496 8.13981 23.2497 7.50002ZM11.9997 3.75002C12.2222 3.75002 12.4397 3.816 12.6247 3.93962C12.8097 4.06324 12.9539 4.23894 13.0391 4.44451C13.1242 4.65007 13.1465 4.87627 13.1031 5.0945C13.0597 5.31273 12.9525 5.51319 12.7952 5.67052C12.6379 5.82785 12.4374 5.935 12.2192 5.97841C12.001 6.02182 11.7748 5.99954 11.5692 5.91439C11.3636 5.82924 11.1879 5.68505 11.0643 5.50004C10.9407 5.31504 10.8747 5.09753 10.8747 4.87502C10.8747 4.57666 10.9932 4.29051 11.2042 4.07953C11.4152 3.86855 11.7013 3.75002 11.9997 3.75002ZM2.24971 7.50002C2.24971 7.27752 2.31569 7.06001 2.43931 6.87501C2.56292 6.69 2.73862 6.54581 2.94419 6.46066C3.14976 6.37551 3.37596 6.35323 3.59419 6.39664C3.81241 6.44005 4.01287 6.5472 4.17021 6.70453C4.32754 6.86186 4.43468 7.06232 4.47809 7.28055C4.5215 7.49878 4.49922 7.72498 4.41407 7.93054C4.32893 8.13611 4.18473 8.31181 3.99973 8.43543C3.81472 8.55904 3.59721 8.62502 3.37471 8.62502C3.07634 8.62502 2.79019 8.5065 2.57921 8.29552C2.36824 8.08454 2.24971 7.79839 2.24971 7.50002ZM18.1141 18H5.88533L4.58033 10.1738L7.66752 13.9688C7.73744 14.0561 7.82602 14.1267 7.92675 14.1754C8.02749 14.224 8.13784 14.2495 8.24971 14.25C8.28357 14.2502 8.3174 14.248 8.35096 14.2435C8.47873 14.2261 8.59987 14.1761 8.70267 14.0982C8.80547 14.0204 8.88646 13.9174 8.93783 13.7991L11.6847 7.48034C11.8939 7.50657 12.1055 7.50657 12.3147 7.48034L15.0616 13.7991C15.113 13.9174 15.194 14.0204 15.2968 14.0982C15.3996 14.1761 15.5207 14.2261 15.6485 14.2435C15.682 14.248 15.7158 14.2502 15.7497 14.25C15.8616 14.2495 15.9719 14.224 16.0727 14.1754C16.1734 14.1267 16.262 14.0561 16.3319 13.9688L19.4191 10.17L18.1141 18ZM20.6247 8.62502C20.4022 8.62502 20.1847 8.55904 19.9997 8.43543C19.8147 8.31181 19.6705 8.13611 19.5853 7.93054C19.5002 7.72498 19.4779 7.49878 19.5213 7.28055C19.5647 7.06232 19.6719 6.86186 19.8292 6.70453C19.9865 6.5472 20.187 6.44005 20.4052 6.39664C20.6235 6.35323 20.8497 6.37551 21.0552 6.46066C21.2608 6.54581 21.4365 6.69 21.5601 6.87501C21.6837 7.06001 21.7497 7.27752 21.7497 7.50002C21.7497 7.79839 21.6312 8.08454 21.4202 8.29552C21.2092 8.5065 20.9231 8.62502 20.6247 8.62502Z" fill="#9CA3AF"/>
</svg>
